<?xml version="1.0" encoding="UTF-8" standalone="no"?>
<svg
   xmlns:dc="http://purl.org/dc/elements/1.1/"
   xmlns:cc="http://creativecommons.org/ns#"
   xmlns:rdf="http://www.w3.org/1999/02/22-rdf-syntax-ns#"
   xmlns:svg="http://www.w3.org/2000/svg"
   xmlns="http://www.w3.org/2000/svg"
   xmlns:sodipodi="http://sodipodi.sourceforge.net/DTD/sodipodi-0.dtd"
   xmlns:inkscape="http://www.inkscape.org/namespaces/inkscape"
   inkscape:export-ydpi="36"
   inkscape:export-xdpi="36"
   inkscape:export-filename="/Users/bbovy/Downloads/fastscape_logo_square_120p.png"
   inkscape:version="1.0 (4035a4f, 2020-05-01)"
   sodipodi:docname="fastscape_logo_no_text.svg"
   id="svg97"
   version="1.1"
   height="320"
   width="320"
   viewBox="440 302 320 320"
   style="isolation:isolate">
  <metadata
     id="metadata101">
    <rdf:RDF>
      <cc:Work
         rdf:about="">
        <dc:format>image/svg+xml</dc:format>
        <dc:type
           rdf:resource="http://purl.org/dc/dcmitype/StillImage" />
        <dc:title></dc:title>
      </cc:Work>
    </rdf:RDF>
  </metadata>
  <sodipodi:namedview
     inkscape:document-rotation="0"
     inkscape:current-layer="svg97"
     inkscape:window-maximized="0"
     inkscape:window-y="64"
     inkscape:window-x="115"
     inkscape:cy="182.41138"
     inkscape:cx="45.921078"
     inkscape:zoom="1.0429825"
     showgrid="false"
     id="namedview99"
     inkscape:window-height="795"
     inkscape:window-width="1347"
     inkscape:pageshadow="2"
     inkscape:pageopacity="0"
     guidetolerance="10"
     gridtolerance="10"
     objecttolerance="10"
     borderopacity="1"
     bordercolor="#666666"
     pagecolor="#ffffff" />
  <defs
     id="defs5">
    <clipPath
       id="_clipPath_2NWExr3hhUzvsvQctasUYA1HHcJFqS7W">
      <rect
         id="rect2"
         height="320"
         width="320"
         y="302"
         x="440" />
    </clipPath>
    <radialGradient
       id="_rgradient_0"
       fx="0.5040608932374377"
       fy="0.49787579393090997"
       cx="0.5"
       cy="0.5"
       r="0.5"
       gradientTransform="matrix(473.15,0.066,0.209,401.866,332.694,302.355)"
       gradientUnits="userSpaceOnUse">
      <stop
         offset="0%"
         stop-opacity="1"
         style="stop-color:rgb(82,91,86)"
         id="stop17" />
      <stop
         offset="100%"
         stop-opacity="1"
         style="stop-color:rgb(48,53,50)"
         id="stop19" />
    </radialGradient>
    <defs
       id="defs29">
      <filter
         id="qyILmbcv1Z5UjMxJv2PF1QMCQZBPrlIP"
         x="-200%"
         y="-200%"
         width="400%"
         height="400%"
         filterUnits="objectBoundingBox"
         color-interpolation-filters="sRGB">
        <feGaussianBlur
           stdDeviation="0"
           id="feGaussianBlur26" />
      </filter>
    </defs>
    <defs
       id="defs64">
      <filter
         id="hNuQ8TjFhOFsQZOEfPSwIfp9HczsjC4O"
         x="-200%"
         y="-200%"
         width="400%"
         height="400%"
         filterUnits="objectBoundingBox"
         color-interpolation-filters="sRGB">
        <feGaussianBlur
           stdDeviation="0"
           id="feGaussianBlur61" />
      </filter>
    </defs>
    <defs
       id="defs78">
      <filter
         id="7oiNQtlayM8EZa5IBftR8V5hGyNAmMfZ"
         x="-200%"
         y="-200%"
         width="400%"
         height="400%"
         filterUnits="objectBoundingBox"
         color-interpolation-filters="sRGB">
        <feGaussianBlur
           stdDeviation="0"
           id="feGaussianBlur75" />
      </filter>
    </defs>
    <defs
       id="defs87">
      <filter
         id="c9Gs9VZ2GYBj3SsHXw8JiOiIKCIbliLB"
         x="-200%"
         y="-200%"
         width="400%"
         height="400%"
         filterUnits="objectBoundingBox"
         color-interpolation-filters="sRGB">
        <feGaussianBlur
           stdDeviation="0"
           id="feGaussianBlur84" />
      </filter>
    </defs>
  </defs>
  <path
     d="M 611.572,535.738 H 530.36 509.659 v -72.062 l 37.701,-63.459 23.606,66.76 z"
     id="path9"
     fill="#525b56" />
  <path
     d="m 555.659,447.676 -14,1 -1,-12.459 1,-5.541 -1,-6 5,-9 5.885,22 z"
     id="path11"
     fill="#ffffff" />
  <path
     d="m 751.169,511.873 v 23.865 h -89.923 -64.923 l 41.581,-56.061 40.342,-54.389 q 1.54,24.792 24.923,69.585 9.132,17.496 48,17 z"
     id="path13"
     fill="#525b56" />
  <path
     d="m 669.593,447 4.957,-6.66 c 0,0 0.306,1.298 0.306,1.298 0.573,2.269 1.172,4.514 1.853,6.755 0.741,2.399 1.512,4.784 2.351,7.157 0.609,1.735 1.204,3.459 1.872,5.17 0.694,1.811 1.388,3.609 2.132,5.406 q 2.447,5.819 7.6,17.153 l -2.44,3.721 -4.713,-4.716 -3.207,-9.819 -6.3,-4.617 -4.411,-6.457 1.543,-7.391 z"
     id="path15"
     fill="#ffffff" />
  <path
     d="m 698,535.738 h -106.341 -82 v -61.062 l 28,-32.469 71,-91.531 q 22.633,59.929 37,91.531 25.28,55.606 52.341,93.531 z"
     id="path22"
     fill="url(#_rgradient_0)"
     style="fill:url(#_rgradient_0)" />
  <path
     d="m 628.784,445.217 -4.125,-2 -2,-4 -4,-4 -5,1 -8,-2 -4,-6 1,-6 -5.017,-4.363 4.017,-7.178 3,-7 -3,-8 5,-6.312 -2,-8.688 -6,-4 8,-11 q 9.967,27.821 16,42.647 5.621,13.812 17,38.884 z"
     id="path24"
     fill="#ffffff" />
  <g
     id="g33"
     filter="url(#qyILmbcv1Z5UjMxJv2PF1QMCQZBPrlIP)">
    <path
       d="m 569.948,535.738 c -1.387,1.987 -1.692,4.665 -0.287,8.479 h -21 c -0.642,-3.313 -0.541,-6.108 0.121,-8.479 z"
       id="path31"
       fill="#525b56" />
  </g>
  <g
     id="g53">
    <rect
       x="491.659"
       y="520.67603"
       width="15"
       height="15"
       id="rect35"
       fill="#be9063" />
    <rect
       x="491.659"
       y="502.67599"
       width="15"
       height="15"
       id="rect37"
       fill="#be9063" />
    <rect
       x="491.659"
       y="484.67599"
       width="15"
       height="15"
       id="rect39"
       fill="#be9063" />
    <rect
       x="491.659"
       y="466.67599"
       width="15"
       height="15"
       id="rect41"
       fill="#be9063" />
    <rect
       x="473.659"
       y="520.67603"
       width="15"
       height="15"
       id="rect43"
       fill="#be9063" />
    <rect
       x="473.659"
       y="484.67599"
       width="15"
       height="15"
       id="rect45"
       fill="#be9063" />
    <rect
       x="455.659"
       y="520.67603"
       width="15"
       height="15"
       id="rect47"
       fill="#be9063" />
    <rect
       x="455.659"
       y="502.67599"
       width="15"
       height="15"
       id="rect49"
       fill="#be9063" />
    <rect
       x="473.659"
       y="502.67599"
       width="15"
       height="15"
       id="rect51"
       fill="#be9063" />
  </g>
  <g
     id="g59">
    <path
       d="m 490.759,373.057 q 13.769,-1.913 30.492,7.77 -17.276,-4.558 -29.803,-2.817 -12.528,1.741 -29.016,12.318 14.559,-15.357 28.327,-17.271 z"
       id="path55"
       fill="#be9063" />
    <path
       d="m 521.682,392.394 q 12.068,1.834 43.101,-8.248 -30.721,5.862 -42.517,4.406 -11.797,-1.456 -22.773,-5.033 10.12,7.04 22.189,8.875 z"
       id="path57"
       fill="#be9063" />
  </g>
  <g
     id="g91"
     filter="url(#c9Gs9VZ2GYBj3SsHXw8JiOiIKCIbliLB)">
    <path
       d="m 569.946,535.738 c 4.952,-7.091 23.689,-5.376 27.696,-15.042 q 7.938,-19.147 -46.098,-56 h -5.885 q 43.448,35.365 36.816,52 c -2.381,5.971 -29.47,3.888 -33.695,19.042 z"
       id="path89"
       fill="#ffffff" />
  </g>
  <path
     d="m 706.22,519.736 v 0.007 q -2.676,1.807 -3.172,3.432 -0.821,2.693 3.172,6.565 h 38.95 v -4.108 c -2.384,0.064 -4.77,0.098 -7.16,0.098 -2.02,0 -4.04,-0.08 -6.05,-0.23 -2.4,-0.18 -4.79,-0.42 -7.17,-0.73 -2.39,-0.32 -4.78,-0.76 -7.13,-1.31 -0.49,-0.11 -0.98,-0.24 -1.47,-0.37 -0.59,-0.16 -1.18,-0.33 -1.76,-0.5 -1.63,-0.49 -3.24,-1.02 -4.84,-1.6 -1.127,-0.409 -2.25,-0.826 -3.37,-1.254 z m -0.003,-3.216 q -3.536,-3.516 -2.804,-5.936 0.44,-1.454 2.807,-3.104 3.95,2.71 6.11,3.76 c 2.53,1.24 5.16,2.27 7.86,3.09 1.05,0.32 2.11,0.62 3.18,0.88 1.17,0.29 2.33,0.55 3.51,0.78 0.85,0.17 1.71,0.32 2.56,0.46 0.91,0.15 1.83,0.29 2.74,0.41 2.85,0.39 5.72,0.65 8.6,0.8 1.46,0.08 2.92,0.14 4.39,0.18 v 4.79 c -2.387,0.066 -4.776,0.1 -7.16,0.1 -1.95,0 -3.89,-0.08 -5.83,-0.23 -2.34,-0.16 -4.67,-0.4 -6.99,-0.7 -2.3,-0.31 -4.59,-0.73 -6.85,-1.26 -0.46,-0.11 -0.91,-0.22 -1.37,-0.35 -0.56,-0.15 -1.12,-0.31 -1.68,-0.48 -1.57,-0.47 -3.13,-0.98 -4.68,-1.54 -1.467,-0.534 -2.933,-1.084 -4.393,-1.65 z"
     id="path93"
     fill-rule="evenodd"
     fill="#ffffff" />
</svg>
