<?xml version="1.0" encoding="UTF-8" standalone="no"?>
<svg
   xmlns:dc="http://purl.org/dc/elements/1.1/"
   xmlns:cc="http://creativecommons.org/ns#"
   xmlns:rdf="http://www.w3.org/1999/02/22-rdf-syntax-ns#"
   xmlns:svg="http://www.w3.org/2000/svg"
   xmlns="http://www.w3.org/2000/svg"
   xmlns:sodipodi="http://sodipodi.sourceforge.net/DTD/sodipodi-0.dtd"
   xmlns:inkscape="http://www.inkscape.org/namespaces/inkscape"
   style="isolation:isolate"
   viewBox="440 302 1600 260"
   width="1600"
   height="260"
   version="1.1"
   id="svg97"
   sodipodi:docname="fastscape_logo_rect_large.svg"
   inkscape:version="1.0 (4035a4f, 2020-05-01)"
   inkscape:export-filename="/Users/bbovy/Git/github/fastscape-lem/design/logo/fastscape_logo_rect_large_highres.png"
   inkscape:export-xdpi="66.782524"
   inkscape:export-ydpi="66.782524">
  <metadata
     id="metadata101">
    <rdf:RDF>
      <cc:Work
         rdf:about="">
        <dc:format>image/svg+xml</dc:format>
        <dc:type
           rdf:resource="http://purl.org/dc/dcmitype/StillImage" />
        <dc:title></dc:title>
      </cc:Work>
    </rdf:RDF>
  </metadata>
  <sodipodi:namedview
     pagecolor="#ffffff"
     bordercolor="#666666"
     borderopacity="1"
     objecttolerance="10"
     gridtolerance="10"
     guidetolerance="10"
     inkscape:pageopacity="0"
     inkscape:pageshadow="2"
     inkscape:window-width="2189"
     inkscape:window-height="941"
     id="namedview99"
     showgrid="false"
     inkscape:zoom="0.47766347"
     inkscape:cx="539.80832"
     inkscape:cy="207.38318"
     inkscape:window-x="0"
     inkscape:window-y="23"
     inkscape:window-maximized="0"
     inkscape:current-layer="svg97"
     inkscape:document-rotation="0" />
  <defs
     id="defs5">
    <clipPath
       id="_clipPath_2NWExr3hhUzvsvQctasUYA1HHcJFqS7W">
      <rect
         x="440"
         y="302"
         width="320"
         height="320"
         id="rect2" />
    </clipPath>
    <radialGradient
       gradientUnits="userSpaceOnUse"
       gradientTransform="matrix(473.15,0.066,0.209,401.866,332.694,302.355)"
       r="0.5"
       cy="0.5"
       cx="0.5"
       fy="0.49787578"
       fx="0.50406086"
       id="_rgradient_0">
      <stop
         id="stop17"
         style="stop-color:rgb(82,91,86)"
         stop-opacity="1"
         offset="0%" />
      <stop
         id="stop19"
         style="stop-color:rgb(48,53,50)"
         stop-opacity="1"
         offset="100%" />
    </radialGradient>
    <defs
       id="defs29">
      <filter
         color-interpolation-filters="sRGB"
         filterUnits="objectBoundingBox"
         height="4"
         width="4"
         y="-2"
         x="-2"
         id="qyILmbcv1Z5UjMxJv2PF1QMCQZBPrlIP">
        <feGaussianBlur
           id="feGaussianBlur26"
           stdDeviation="0" />
      </filter>
    </defs>
    <defs
       id="defs64">
      <filter
         color-interpolation-filters="sRGB"
         filterUnits="objectBoundingBox"
         height="4"
         width="4"
         y="-2"
         x="-2"
         id="hNuQ8TjFhOFsQZOEfPSwIfp9HczsjC4O">
        <feGaussianBlur
           id="feGaussianBlur61"
           stdDeviation="0" />
      </filter>
    </defs>
    <defs
       id="defs78">
      <filter
         color-interpolation-filters="sRGB"
         filterUnits="objectBoundingBox"
         height="4"
         width="4"
         y="-2"
         x="-2"
         id="7oiNQtlayM8EZa5IBftR8V5hGyNAmMfZ">
        <feGaussianBlur
           id="feGaussianBlur75"
           stdDeviation="0" />
      </filter>
    </defs>
    <defs
       id="defs87">
      <filter
         color-interpolation-filters="sRGB"
         filterUnits="objectBoundingBox"
         height="4"
         width="4"
         y="-2"
         x="-2"
         id="c9Gs9VZ2GYBj3SsHXw8JiOiIKCIbliLB">
        <feGaussianBlur
           id="feGaussianBlur84"
           stdDeviation="0" />
      </filter>
    </defs>
    <radialGradient
       id="_rgradient_1"
       fx="0.5"
       fy="0.5"
       cx="0.5"
       cy="0.5"
       r="0.5"
       gradientTransform="matrix(388.735,-0.326,0.882,120.882,893.27831,387.72391)"
       gradientUnits="userSpaceOnUse">
      <stop
         offset="0%"
         stop-opacity="1"
         style="stop-color:rgb(82,91,86)"
         id="stop66" />
      <stop
         offset="97.82608695652173%"
         stop-opacity="1"
         style="stop-color:rgb(70,78,73)"
         id="stop68" />
    </radialGradient>
  </defs>
  <g
     id="g140"
     transform="matrix(3.9,0,0,3.9,-2567.3401,-1306.0765)">
    <path
       style="fill:url(#_rgradient_1);filter:url(#hNuQ8TjFhOFsQZOEfPSwIfp9HczsjC4O)"
       fill="url(#_rgradient_1)"
       fill-rule="evenodd"
       id="path71"
       d="m 1019.3943,460.18691 v 0 h -16.107 v 0 q -0.969,0 -1.308,-0.288 v 0 0 q -0.34,-0.287 -0.131,-0.931 v 0 l 1.287,-3.959 v 0 q 0.209,-0.644 0.736,-0.931 v 0 0 q 0.527,-0.288 1.495,-0.288 v 0 h 13.711 v 0 q 0.663,0 1.088,-0.288 v 0 0 q 0.425,-0.287 0.557,-0.693 v 0 0 q 0.187,-0.576 -0.056,-0.847 v 0 0 q -0.244,-0.27 -0.895,-0.304 v 0 l -7.415,-0.711 v 0 q -3.458,-0.338 -5.228,-1.557 v 0 0 q -1.77,-1.218 -0.846,-4.061 v 0 l 1.156,-3.554 v 0 q 0.935,-2.877 4.239,-4.417 v 0 0 q 3.304,-1.54 8.248,-1.54 v 0 h 14.272 v 0 q 0.968,0 1.308,0.288 v 0 0 q 0.34,0.288 0.13,0.931 v 0 l -1.309,4.027 v 0 q -0.209,0.643 -0.736,0.931 v 0 0 q -0.526,0.288 -1.495,0.288 v 0 h -11.876 v 0 q -0.663,0 -1.113,0.287 v 0 0 q -0.45,0.288 -0.593,0.728 v 0 0 q -0.143,0.44 0.114,0.745 v 0 0 q 0.258,0.304 0.91,0.338 v 0 l 7.374,0.677 v 0 q 3.458,0.338 5.254,1.557 v 0 0 q 1.795,1.218 0.871,4.061 v 0 l -1.155,3.554 v 0 q -0.935,2.877 -4.265,4.417 v 0 0 q -3.329,1.54 -8.222,1.54 z m 107.244,-18.04 h -4.587 l -1.661,5.111 h 4.587 v 0 q 1.478,0 2.102,-0.508 v 0 0 q 0.624,-0.507 0.833,-1.15 v 0 l 0.583,-1.794 v 0 q 0.209,-0.643 -0.085,-1.151 v 0 0 q -0.294,-0.508 -1.772,-0.508 z m -66.723,18.04 v 0 h -12.437 v 0 q -6.371,0 -8.905,-1.692 v 0 0 q -2.533,-1.693 -1.389,-5.213 v 0 l 3.422,-10.525 v 0 q 1.144,-3.52 4.784,-5.229 v 0 0 q 3.639,-1.71 10.01,-1.71 v 0 h 12.437 v 0 q 0.969,0 1.308,0.288 v 0 0 q 0.34,0.288 0.131,0.931 v 0 l -1.331,4.095 v 0 q -0.209,0.643 -0.736,0.931 v 0 0 q -0.527,0.287 -1.495,0.287 v 0 h -10.245 v 0 q -1.581,0 -2.483,0.423 v 0 0 q -0.902,0.424 -1.177,1.27 v 0 l -2.618,8.055 v 0 q -0.276,0.846 0.362,1.235 v 0 0 q 0.638,0.389 2.219,0.389 v 0 h 10.245 v 0 q 0.968,0 1.308,0.288 v 0 0 q 0.34,0.288 0.13,0.931 v 0 l -1.309,4.027 v 0 q -0.209,0.644 -0.736,0.931 v 0 0 q -0.526,0.288 -1.495,0.288 z m 26.509,-17.261 v 0 l -4.068,5.144 h 8.003 l -0.723,-5.144 v 0 q -0.105,-0.305 -0.291,-0.44 v 0 0 q -0.185,-0.136 -0.491,-0.136 v 0 h -1.274 v 0 q -0.306,0 -0.579,0.136 v 0 0 q -0.274,0.135 -0.577,0.44 z m 78.541,17.261 v 0 h -23.65 v 0 q -0.969,0 -1.308,-0.288 v 0 0 q -0.34,-0.287 -0.131,-0.931 v 0 l 7.13,-21.931 v 0 q 0.209,-0.643 0.736,-0.931 v 0 0 q 0.527,-0.288 1.495,-0.288 v 0 h 23.65 v 0 q 0.969,0 1.308,0.288 v 0 0 q 0.34,0.288 0.131,0.931 v 0 l -1.287,3.96 v 0 q -0.209,0.643 -0.736,0.93 v 0 0 q -0.527,0.288 -1.495,0.288 v 0 h -14.068 l -0.847,2.606 h 9.939 v 0 q 0.968,0 1.308,0.288 v 0 0 q 0.34,0.287 0.131,0.931 v 0 l -1.178,3.621 v 0 q -0.209,0.643 -0.735,0.931 v 0 0 q -0.527,0.287 -1.496,0.287 v 0 h -9.939 l -0.946,2.911 h 14.068 v 0 q 0.968,0 1.308,0.288 v 0 0 q 0.34,0.287 0.131,0.931 v 0 l -1.288,3.959 v 0 q -0.209,0.644 -0.736,0.931 v 0 0 q -0.526,0.288 -1.495,0.288 z m -85.121,-5.957 -1.54,4.738 v 0 q -0.209,0.644 -0.736,0.931 v 0 0 q -0.527,0.288 -1.495,0.288 v 0 h -7.493 v 0 q -0.968,0 -1.308,-0.288 v 0 0 q -0.34,-0.287 -0.131,-0.931 v 0 l 2.905,-8.935 v 0 q 0.33,-1.015 1.243,-2.335 v 0 0 q 0.914,-1.32 2.505,-3.08 v 0 l 6.932,-7.683 v 0 q 0.493,-0.575 1.218,-0.846 v 0 0 q 0.726,-0.271 1.745,-0.271 v 0 h 13.711 v 0 q 0.968,0 1.518,0.271 v 0 0 q 0.549,0.271 0.667,0.846 v 0 l 1.937,7.683 v 0 q 0.448,1.76 0.503,3.08 v 0 0 q 0.055,1.32 -0.275,2.335 v 0 l -2.905,8.935 v 0 q -0.209,0.644 -0.736,0.931 v 0 0 q -0.527,0.288 -1.495,0.288 v 0 h -7.697 v 0 q -1.019,0 -1.41,-0.288 v 0 0 q -0.391,-0.287 -0.181,-0.931 v 0 l 1.54,-4.738 z m 34.609,5.957 v 0 h -7.9 v 0 q -0.968,0 -1.308,-0.288 v 0 0 q -0.34,-0.287 -0.131,-0.931 v 0 l 7.13,-21.931 v 0 q 0.209,-0.643 0.736,-0.931 v 0 0 q 0.527,-0.288 1.495,-0.288 v 0 h 15.597 v 0 q 6.932,0 8.886,1.828 v 0 0 q 1.955,1.828 0.998,4.772 v 0 l -1.409,4.332 v 0 q -0.957,2.945 -4.1,4.772 v 0 0 q -3.142,1.828 -10.074,1.828 v 0 h -5.862 l -1.826,5.618 v 0 q -0.21,0.644 -0.736,0.931 v 0 0 q -0.527,0.288 -1.496,0.288 z" />
    <path
       fill="#be9063"
       fill-rule="evenodd"
       id="path80"
       d="m 941.56731,453.78991 h 10.943 v 0 q 0.663,0 1.088,-0.288 v 0 0 q 0.424,-0.287 0.556,-0.693 v 0 0 q 0.187,-0.576 -0.056,-0.847 v 0 0 q -0.243,-0.27 -0.895,-0.304 v 0 l -7.414,-0.711 v 0 q -3.458,-0.338 -5.228,-1.557 v 0 0 q -1.77,-1.218 -0.846,-4.061 v 0 l 0.582,-1.79 v 0 h 11.599 q -0.02,0.286 0.164,0.504 v 0 0 q 0.258,0.304 0.909,0.338 v 0 l 7.375,0.677 v 0 q 3.458,0.338 5.253,1.557 v 0 0 q 1.796,1.218 0.872,4.061 v 0 l -1.155,3.554 v 0 q -0.936,2.877 -4.265,4.417 v 0 0 q -3.33,1.54 -8.223,1.54 v 0 0 0 h -11.259 v 0 h -16 v 0 h -5.566 v 0 q -1.019,0 -1.41,-0.288 v 0 0 q -0.391,-0.287 -0.182,-0.931 v 0 l 1.541,-4.738 h -9.022 v 0 l -1.54,4.738 v 0 q -0.209,0.644 -0.736,0.931 v 0 0 q -0.527,0.288 -1.495,0.288 v 0 h -7.493 v 0 q -0.969,0 -1.308,-0.288 v 0 0 q -0.34,-0.287 -0.131,-0.931 v 0 l 2.905,-8.935 v 0 q 0.33,-1.015 1.243,-2.335 v 0 0 q 0.914,-1.32 2.505,-3.08 v 0 l 0.974,-1.079 h 11.171 l -3.583,4.531 h 8.003 l -0.637,-4.531 v 0 0 h 11.528 l 0.272,1.079 v 0 q 0.447,1.76 0.502,3.08 v 0 0 q 0.056,1.32 -0.275,2.335 v 0 l -1.221,3.757 h 7.187 v 0 0 z m -0.615,-12.251 q 0.99,-2.705 4.157,-4.181 v 0 0 q 2.861,-1.333 6.951,-1.512 v 0 0 -0.028 h 1.266 q 0.015,0 0.031,0 v 0 h 14.272 v 0 q 0.007,0 0.015,0 h 8.942 q 0.007,0 0.014,0 v 0 h 26.91199 v 0 q 0.969,0 1.309,0.288 v 0 0 q 0.339,0.288 0.13,0.931 v 0 l -1.331,4.095 v 0 q -0.073,0.225 -0.186,0.407 z m 40.631,2 -5.016,15.429 v 0 q -0.209,0.644 0.13,0.931 v 0 0 q 0.34,0.288 1.309,0.288 v 0 h 8.257 v 0 0 0 q 0.968,0 1.495,-0.288 v 0 0 q 0.527,-0.287 0.736,-0.931 v 0 l 5.016,-15.429 z m -108.427,-2 1.464,-4.502 v 0 q 0.209,-0.643 0.736,-0.931 v 0 0 q 0.526,-0.288 1.495,-0.288 v 0 h 22.733 q 0.007,0 0.014,0 v 0 0 0 h 15.159 q 0.008,0 0.016,0 v 0 h 13.711 v 0 q 0.968,0 1.517,0.271 v 0 0 q 0.55,0.271 0.668,0.846 v 0 l 1.161,4.604 z m -0.65,2 -5.016,15.429 v 0 q -0.209,0.644 0.131,0.931 v 0 0 q 0.339,0.288 1.308,0.288 v 0 h 7.9 v 0 0 q 0.969,0 1.495,-0.288 v 0 0 q 0.527,-0.287 0.736,-0.931 v 0 l 2.168,-6.667 h 8.869 v 0 q 0.968,0 1.495,-0.288 v 0 0 q 0.527,-0.287 0.736,-0.93 v 0 l 1.32,-4.062 v 0 q 0.209,-0.643 -0.131,-0.931 v 0 0 q -0.339,-0.287 -1.308,-0.287 v 0 h -8.869 l 0.736,-2.264 z"
       style="filter:url(#7oiNQtlayM8EZa5IBftR8V5hGyNAmMfZ)" />
  </g>
  <g
     id="g166"
     transform="translate(8.3740966,-14.381833)">
    <path
       d="M 611.572,535.738 H 530.36 509.659 v -72.062 l 37.701,-63.459 23.606,66.76 z"
       id="path9"
       fill="#525b56" />
    <path
       d="m 555.659,447.676 -14,1 -1,-12.459 1,-5.541 -1,-6 5,-9 5.885,22 z"
       id="path11"
       fill="#ffffff" />
    <path
       d="m 751.169,511.873 v 23.865 h -89.923 -64.923 l 41.581,-56.061 40.342,-54.389 q 1.54,24.792 24.923,69.585 9.132,17.496 48,17 z"
       id="path13"
       fill="#525b56" />
    <path
       d="m 669.593,447 4.957,-6.66 c 0,0 0.306,1.298 0.306,1.298 0.573,2.269 1.172,4.514 1.853,6.755 0.741,2.399 1.512,4.784 2.351,7.157 0.609,1.735 1.204,3.459 1.872,5.17 0.694,1.811 1.388,3.609 2.132,5.406 q 2.447,5.819 7.6,17.153 l -2.44,3.721 -4.713,-4.716 -3.207,-9.819 -6.3,-4.617 -4.411,-6.457 1.543,-7.391 z"
       id="path15"
       fill="#ffffff" />
    <path
       d="m 698,535.738 h -106.341 -82 v -61.062 l 28,-32.469 71,-91.531 q 22.633,59.929 37,91.531 25.28,55.606 52.341,93.531 z"
       id="path22"
       fill="url(#_rgradient_0)"
       style="fill:url(#_rgradient_0)" />
    <path
       d="m 628.784,445.217 -4.125,-2 -2,-4 -4,-4 -5,1 -8,-2 -4,-6 1,-6 -5.017,-4.363 4.017,-7.178 3,-7 -3,-8 5,-6.312 -2,-8.688 -6,-4 8,-11 q 9.967,27.821 16,42.647 5.621,13.812 17,38.884 z"
       id="path24"
       fill="#ffffff" />
    <g
       id="g33"
       filter="url(#qyILmbcv1Z5UjMxJv2PF1QMCQZBPrlIP)">
      <path
         d="m 569.948,535.738 c -1.387,1.987 -1.692,4.665 -0.287,8.479 h -21 c -0.642,-3.313 -0.541,-6.108 0.121,-8.479 z"
         id="path31"
         fill="#525b56" />
    </g>
    <g
       id="g53">
      <rect
         x="491.659"
         y="520.67603"
         width="15"
         height="15"
         id="rect35"
         fill="#be9063" />
      <rect
         x="491.659"
         y="502.67599"
         width="15"
         height="15"
         id="rect37"
         fill="#be9063" />
      <rect
         x="491.659"
         y="484.67599"
         width="15"
         height="15"
         id="rect39"
         fill="#be9063" />
      <rect
         x="491.659"
         y="466.67599"
         width="15"
         height="15"
         id="rect41"
         fill="#be9063" />
      <rect
         x="473.659"
         y="520.67603"
         width="15"
         height="15"
         id="rect43"
         fill="#be9063" />
      <rect
         x="473.659"
         y="484.67599"
         width="15"
         height="15"
         id="rect45"
         fill="#be9063" />
      <rect
         x="455.659"
         y="520.67603"
         width="15"
         height="15"
         id="rect47"
         fill="#be9063" />
      <rect
         x="455.659"
         y="502.67599"
         width="15"
         height="15"
         id="rect49"
         fill="#be9063" />
      <rect
         x="473.659"
         y="502.67599"
         width="15"
         height="15"
         id="rect51"
         fill="#be9063" />
    </g>
    <g
       id="g59">
      <path
         d="m 490.759,373.057 q 13.769,-1.913 30.492,7.77 -17.276,-4.558 -29.803,-2.817 -12.528,1.741 -29.016,12.318 14.559,-15.357 28.327,-17.271 z"
         id="path55"
         fill="#be9063" />
      <path
         d="m 521.682,392.394 q 12.068,1.834 43.101,-8.248 -30.721,5.862 -42.517,4.406 -11.797,-1.456 -22.773,-5.033 10.12,7.04 22.189,8.875 z"
         id="path57"
         fill="#be9063" />
    </g>
    <g
       id="g91"
       filter="url(#c9Gs9VZ2GYBj3SsHXw8JiOiIKCIbliLB)">
      <path
         d="m 569.946,535.738 c 4.952,-7.091 23.689,-5.376 27.696,-15.042 q 7.938,-19.147 -46.098,-56 h -5.885 q 43.448,35.365 36.816,52 c -2.381,5.971 -29.47,3.888 -33.695,19.042 z"
         id="path89"
         fill="#ffffff" />
    </g>
    <path
       d="m 706.22,519.736 v 0.007 q -2.676,1.807 -3.172,3.432 -0.821,2.693 3.172,6.565 h 38.95 v -4.108 c -2.384,0.064 -4.77,0.098 -7.16,0.098 -2.02,0 -4.04,-0.08 -6.05,-0.23 -2.4,-0.18 -4.79,-0.42 -7.17,-0.73 -2.39,-0.32 -4.78,-0.76 -7.13,-1.31 -0.49,-0.11 -0.98,-0.24 -1.47,-0.37 -0.59,-0.16 -1.18,-0.33 -1.76,-0.5 -1.63,-0.49 -3.24,-1.02 -4.84,-1.6 -1.127,-0.409 -2.25,-0.826 -3.37,-1.254 z m -0.003,-3.216 q -3.536,-3.516 -2.804,-5.936 0.44,-1.454 2.807,-3.104 3.95,2.71 6.11,3.76 c 2.53,1.24 5.16,2.27 7.86,3.09 1.05,0.32 2.11,0.62 3.18,0.88 1.17,0.29 2.33,0.55 3.51,0.78 0.85,0.17 1.71,0.32 2.56,0.46 0.91,0.15 1.83,0.29 2.74,0.41 2.85,0.39 5.72,0.65 8.6,0.8 1.46,0.08 2.92,0.14 4.39,0.18 v 4.79 c -2.387,0.066 -4.776,0.1 -7.16,0.1 -1.95,0 -3.89,-0.08 -5.83,-0.23 -2.34,-0.16 -4.67,-0.4 -6.99,-0.7 -2.3,-0.31 -4.59,-0.73 -6.85,-1.26 -0.46,-0.11 -0.91,-0.22 -1.37,-0.35 -0.56,-0.15 -1.12,-0.31 -1.68,-0.48 -1.57,-0.47 -3.13,-0.98 -4.68,-1.54 -1.467,-0.534 -2.933,-1.084 -4.393,-1.65 z"
       id="path93"
       fill-rule="evenodd"
       fill="#ffffff" />
  </g>
</svg>
